<?xml version="1.0" encoding="UTF-8"?>
<svg width="512px" height="512px" viewBox="0 0 512 512" version="1.1" xmlns="http://www.w3.org/2000/svg" xmlns:xlink="http://www.w3.org/1999/xlink">
    <title>u267B-blackuniversalrecyclingsymbol</title>
    <g id="Page-1" stroke="none" stroke-width="1" fill="none" fill-rule="evenodd">
        <g id="u267B-blackuniversalrecyclingsymbol" transform="translate(4.000000, 13.000000)" fill-rule="nonzero">
            <g id="Layer_2" transform="translate(140.000000, 0.000000)" fill="#00D1AE">
                <path d="M251.194,99.882 L229.82,113.079 L166.755,10.934 C163.779,6.113 159.085,2.712 153.736,1.319 C152.933,0.881 148.261,0.617 148.261,0.617 L59.052,0.617 C52.844,0.617 47.071,3.803 43.762,9.056 L41.283,12.991 L3.551,72.882 C-2.844,83.033 0.266,96.451 10.474,102.754 L54.648,130.027 C64.728,136.251 77.941,133.187 84.253,123.162 L104.32,91.294 L148.861,163.063 L127.534,176.23 C119.943,180.917 120.921,192.247 129.202,195.565 L242.669,241.025 C249.452,243.743 256.931,239.125 257.54,231.843 L267.733,110.033 C268.477,101.145 258.785,95.195 251.194,99.882 Z" id="Path"></path>
            </g>
            <g id="Layer_3" transform="translate(140.000000, 3.000000)" fill="#00B89C">
                <path d="M104.948,89.101 L49.781,0.21 C47.383,1.646 45.299,3.616 43.761,6.057 L41.282,9.992 L3.55,69.883 C-2.845,80.034 0.265,93.452 10.473,99.755 L54.647,127.028 C64.727,133.252 77.94,130.188 84.252,120.163 L104.319,88.295" id="Path"></path>
            </g>
            <g id="Layer_4" transform="translate(0.000000, 144.000000)" fill="#00D1AE">
                <path d="M178.448,129.662 L156.015,9.503 C154.674,2.32 146.768,-1.52 140.293,1.869 L31.993,58.547 C24.089,62.683 24.26,74.055 32.285,77.952 L54.882,88.925 L2.445,196.91 C-0.03,202.006 -0.386,207.793 1.305,213.055 C1.366,213.967 3.647,218.053 3.647,218.053 L51.458,293.368 C54.785,298.609 60.569,301.776 66.777,301.754114 L71.427,301.738 L142.213,301.495 C154.211,301.454 163.872,291.637 163.722,279.64 L163.073,227.729 C162.925,215.883 153.257,206.371 141.411,206.414 L103.752,206.552 L140.472,130.484 L163.019,141.432 C171.043,145.33 180.086,138.432 178.448,129.662 Z" id="Path"></path>
            </g>
            <g id="Layer_5" transform="translate(58.000000, 349.000000)" fill="#00B89C">
                <path d="M46.095,0.59 L0.615,94.806 C3.113,96.061 5.893,96.765 8.777,96.7551051 L13.427,96.739 L84.213,96.496 C96.211,96.455 105.872,86.638 105.722,74.641 L105.073,22.73 C104.925,10.884 95.257,1.372 83.411,1.415 L45.752,1.553" id="Path"></path>
            </g>
            <g id="Layer_6" transform="translate(195.000000, 266.000000)" fill="#00D1AE">
                <path d="M306.912,80.139 L304.875,75.958 L273.876,12.321 C268.622,1.535 255.58,-2.897 244.842,2.455 L198.378,25.612 C187.775,30.896 183.413,43.739 188.603,54.388 L205.103,88.241 L120.636,88.252 L120.691,63.188 C120.71,54.267 110.567,49.124 103.382,54.411 L4.932,126.862 C-0.954,131.193 -0.973,139.983 4.894,144.34 L103.026,217.22 C110.188,222.539 120.354,217.44 120.373,208.519 L120.428,183.399 L240.472,183.661 C246.137,183.673 251.503,181.478 255.506,177.667 C256.301,177.216 258.989,173.385 258.989,173.385 L306.02,97.581 C309.294,92.306 309.631,85.72 306.912,80.139 Z" id="Path"></path>
            </g>
            <g id="Layer_7" transform="translate(381.000000, 266.000000)" fill="#00B89C">
                <path d="M18.088,88.351 L122.706,88.337 C122.75,85.542 122.175,82.732 120.912,80.139 L118.875,75.958 L87.876,12.321 C82.622,1.535 69.58,-2.897 58.843,2.455 L12.379,25.612 C1.776,30.896 -2.586,43.739 2.604,54.388 L19.104,88.241" id="Path"></path>
            </g>
        </g>
    </g>
</svg>